<svg xmlns="http://www.w3.org/2000/svg" width="600" height="600" viewBox="0 0 600 600">
    <rect width="600" height="600" rx="180" fill="#0060FF"/>
    <path
            d="M20 13c0 5-3.5 7.5-7.66 8.95a1 1 0 0 1-.67-.01C7.5 20.5 4 18 4 13V6a1 1 0 0 1 1-1c2 0 4.5-1.2 6.24-2.72a1.17 1.17 0 0 1 1.52 0C14.51 3.81 17 5 19 5a1 1 0 0 1 1 1z"
            fill="none"
            stroke="#fff"
            stroke-width="2"
            stroke-linecap="round"
            stroke-linejoin="round"
            transform="translate(70, 70) scale(19.17)"
    />
</svg>