<svg xmlns="http://www.w3.org/2000/svg" xmlns:xlink="http://www.w3.org/1999/xlink" width="5578" zoomAndPan="magnify" viewBox="0 0 4183.5 899.99999" height="1200" preserveAspectRatio="xMidYMid meet" version="1.0"><defs><g/><clipPath id="805914288e"><path d="M 0 0.0546875 L 899.890625 0.0546875 L 899.890625 899.945312 L 0 899.945312 Z M 0 0.0546875 " clip-rule="nonzero"/></clipPath><clipPath id="a14abf5b12"><path d="M 3617 118 L 4183 118 L 4183 781 L 3617 781 Z M 3617 118 " clip-rule="nonzero"/></clipPath></defs><g clip-path="url(#805914288e)"><path fill="#0060ff" d="M 269.96875 0.0546875 L 629.925781 0.0546875 C 634.34375 0.0546875 638.757812 0.164062 643.171875 0.378906 C 647.585938 0.597656 651.988281 0.921875 656.386719 1.355469 C 660.78125 1.785156 665.167969 2.328125 669.539062 2.976562 C 673.90625 3.625 678.257812 4.378906 682.59375 5.242188 C 686.925781 6.101562 691.234375 7.070312 695.519531 8.144531 C 699.808594 9.21875 704.0625 10.394531 708.292969 11.679688 C 712.519531 12.960938 716.714844 14.347656 720.875 15.835938 C 725.035156 17.324219 729.15625 18.914062 733.238281 20.605469 C 737.320312 22.292969 741.355469 24.085938 745.351562 25.972656 C 749.34375 27.863281 753.289062 29.847656 757.1875 31.929688 C 761.082031 34.015625 764.925781 36.191406 768.714844 38.460938 C 772.503906 40.734375 776.238281 43.097656 779.910156 45.550781 C 783.585938 48.007812 787.195312 50.550781 790.742188 53.179688 C 794.292969 55.8125 797.773438 58.53125 801.191406 61.332031 C 804.605469 64.136719 807.949219 67.023438 811.222656 69.988281 C 814.496094 72.957031 817.695312 76 820.820312 79.125 C 823.945312 82.25 826.992188 85.449219 829.957031 88.722656 C 832.925781 91.996094 835.808594 95.339844 838.613281 98.753906 C 841.414062 102.171875 844.132812 105.652344 846.765625 109.203125 C 849.398438 112.75 851.941406 116.363281 854.394531 120.035156 C 856.847656 123.710938 859.210938 127.441406 861.484375 131.230469 C 863.753906 135.019531 865.933594 138.863281 868.015625 142.757812 C 870.097656 146.65625 872.082031 150.601562 873.972656 154.59375 C 875.863281 158.589844 877.652344 162.628906 879.34375 166.710938 C 881.03125 170.792969 882.621094 174.914062 884.109375 179.070312 C 885.597656 183.230469 886.984375 187.425781 888.269531 191.652344 C 889.550781 195.882812 890.726562 200.140625 891.800781 204.425781 C 892.875 208.710938 893.84375 213.019531 894.703125 217.351562 C 895.566406 221.6875 896.320312 226.039062 896.96875 230.410156 C 897.617188 234.78125 898.160156 239.164062 898.59375 243.558594 C 899.027344 247.957031 899.351562 252.363281 899.566406 256.773438 C 899.785156 261.1875 899.890625 265.601562 899.890625 270.023438 L 899.890625 629.976562 C 899.890625 634.398438 899.785156 638.8125 899.566406 643.226562 C 899.351562 647.636719 899.027344 652.042969 898.59375 656.441406 C 898.160156 660.835938 897.617188 665.21875 896.96875 669.589844 C 896.320312 673.960938 895.566406 678.3125 894.703125 682.648438 C 893.84375 686.980469 892.875 691.289062 891.800781 695.574219 C 890.726562 699.859375 889.550781 704.117188 888.269531 708.347656 C 886.984375 712.574219 885.597656 716.769531 884.109375 720.929688 C 882.621094 725.085938 881.03125 729.207031 879.34375 733.289062 C 877.652344 737.371094 875.863281 741.410156 873.972656 745.40625 C 872.082031 749.398438 870.097656 753.34375 868.015625 757.242188 C 865.933594 761.136719 863.753906 764.980469 861.484375 768.769531 C 859.210938 772.558594 856.847656 776.289062 854.394531 779.964844 C 851.941406 783.636719 849.398438 787.25 846.765625 790.796875 C 844.132812 794.347656 841.414062 797.828125 838.613281 801.242188 C 835.808594 804.660156 832.925781 808.003906 829.957031 811.277344 C 826.992188 814.550781 823.945312 817.75 820.820312 820.875 C 817.695312 824 814.496094 827.042969 811.222656 830.011719 C 807.949219 832.980469 804.605469 835.863281 801.191406 838.667969 C 797.773438 841.46875 794.292969 844.1875 790.746094 846.820312 C 787.195312 849.449219 783.585938 851.992188 779.910156 854.449219 C 776.238281 856.902344 772.503906 859.265625 768.714844 861.539062 C 764.925781 863.808594 761.082031 865.984375 757.1875 868.070312 C 753.289062 870.152344 749.34375 872.136719 745.351562 874.027344 C 741.355469 875.914062 737.320312 877.707031 733.238281 879.394531 C 729.15625 881.085938 725.035156 882.675781 720.875 884.164062 C 716.714844 885.652344 712.519531 887.039062 708.292969 888.320312 C 704.0625 889.605469 699.808594 890.78125 695.519531 891.855469 C 691.234375 892.929688 686.925781 893.898438 682.59375 894.757812 C 678.257812 895.621094 673.90625 896.375 669.539062 897.023438 C 665.167969 897.671875 660.78125 898.214844 656.386719 898.644531 C 651.988281 899.078125 647.585938 899.402344 643.171875 899.621094 C 638.757812 899.835938 634.34375 899.945312 629.925781 899.945312 L 269.96875 899.945312 C 265.550781 899.945312 261.132812 899.835938 256.722656 899.621094 C 252.308594 899.402344 247.902344 899.078125 243.507812 898.644531 C 239.109375 898.214844 234.726562 897.671875 230.355469 897.023438 C 225.984375 896.375 221.632812 895.621094 217.300781 894.757812 C 212.964844 893.898438 208.65625 892.929688 204.371094 891.855469 C 200.085938 890.78125 195.828125 889.605469 191.601562 888.320312 C 187.371094 887.039062 183.179688 885.652344 179.019531 884.164062 C 174.859375 882.675781 170.738281 881.085938 166.65625 879.394531 C 162.574219 877.707031 158.535156 875.914062 154.542969 874.027344 C 150.546875 872.136719 146.601562 870.152344 142.707031 868.070312 C 138.808594 865.984375 134.964844 863.808594 131.175781 861.539062 C 127.386719 859.265625 123.65625 856.902344 119.980469 854.449219 C 116.308594 851.992188 112.695312 849.449219 109.148438 846.820312 C 105.597656 844.1875 102.117188 841.46875 98.703125 838.667969 C 95.285156 835.863281 91.941406 832.980469 88.667969 830.011719 C 85.394531 827.042969 82.195312 824 79.070312 820.875 C 75.949219 817.75 72.902344 814.550781 69.933594 811.277344 C 66.96875 808.003906 64.082031 804.660156 61.28125 801.246094 C 58.476562 797.828125 55.757812 794.347656 53.128906 790.796875 C 50.496094 787.25 47.953125 783.636719 45.496094 779.964844 C 43.042969 776.289062 40.679688 772.558594 38.410156 768.769531 C 36.136719 764.980469 33.960938 761.136719 31.878906 757.242188 C 29.792969 753.34375 27.808594 749.398438 25.917969 745.40625 C 24.03125 741.410156 22.242188 737.371094 20.550781 733.289062 C 18.859375 729.207031 17.269531 725.085938 15.78125 720.929688 C 14.292969 716.769531 12.90625 712.574219 11.625 708.347656 C 10.34375 704.117188 9.164062 699.859375 8.089844 695.574219 C 7.015625 691.289062 6.050781 686.980469 5.1875 682.648438 C 4.324219 678.3125 3.570312 673.960938 2.921875 669.589844 C 2.273438 665.21875 1.734375 660.835938 1.300781 656.441406 C 0.867188 652.042969 0.542969 647.636719 0.324219 643.226562 C 0.109375 638.8125 0 634.398438 0 629.976562 L 0 270.023438 C 0 265.601562 0.109375 261.1875 0.324219 256.773438 C 0.542969 252.363281 0.867188 247.957031 1.300781 243.558594 C 1.734375 239.164062 2.273438 234.78125 2.921875 230.410156 C 3.570312 226.039062 4.324219 221.6875 5.1875 217.351562 C 6.050781 213.019531 7.015625 208.710938 8.089844 204.425781 C 9.164062 200.140625 10.34375 195.882812 11.625 191.652344 C 12.90625 187.425781 14.292969 183.230469 15.78125 179.070312 C 17.269531 174.914062 18.859375 170.792969 20.550781 166.710938 C 22.242188 162.628906 24.03125 158.589844 25.917969 154.59375 C 27.808594 150.601562 29.792969 146.65625 31.878906 142.757812 C 33.960938 138.863281 36.136719 135.019531 38.410156 131.230469 C 40.679688 127.441406 43.042969 123.710938 45.496094 120.035156 C 47.953125 116.363281 50.496094 112.75 53.128906 109.203125 C 55.757812 105.652344 58.476562 102.171875 61.28125 98.753906 C 64.082031 95.339844 66.96875 91.996094 69.933594 88.722656 C 72.902344 85.449219 75.949219 82.25 79.070312 79.125 C 82.195312 76 85.394531 72.957031 88.667969 69.988281 C 91.941406 67.023438 95.285156 64.136719 98.703125 61.332031 C 102.117188 58.53125 105.597656 55.8125 109.148438 53.179688 C 112.695312 50.550781 116.308594 48.007812 119.980469 45.550781 C 123.65625 43.097656 127.386719 40.734375 131.175781 38.460938 C 134.964844 36.191406 138.808594 34.015625 142.707031 31.929688 C 146.601562 29.847656 150.546875 27.863281 154.542969 25.972656 C 158.535156 24.085938 162.574219 22.292969 166.65625 20.605469 C 170.738281 18.914062 174.859375 17.324219 179.019531 15.835938 C 183.179688 14.347656 187.371094 12.960938 191.601562 11.679688 C 195.828125 10.394531 200.085938 9.21875 204.371094 8.144531 C 208.65625 7.070312 212.964844 6.101562 217.300781 5.242188 C 221.632812 4.378906 225.984375 3.625 230.355469 2.976562 C 234.726562 2.328125 239.109375 1.785156 243.507812 1.355469 C 247.902344 0.921875 252.308594 0.597656 256.722656 0.378906 C 261.132812 0.164062 265.550781 0.0546875 269.96875 0.0546875 Z M 269.96875 0.0546875 " fill-opacity="1" fill-rule="nonzero"/></g><path stroke-linecap="round" transform="matrix(28.751562, 0, 0, 28.751562, 104.987448, 105.041239)" fill="none" stroke-linejoin="round" d="M 20.000029 13.000033 C 20.000029 18.000033 16.499947 20.500033 12.339983 21.949954 C 12.231022 21.986909 12.119071 22.004571 12.004132 22.002805 C 11.889193 22.001038 11.777786 21.980116 11.670047 21.940036 C 7.500029 20.500033 3.999947 18.000033 3.999947 13.000033 L 3.999947 6.000006 C 3.999947 5.967263 4.001578 5.93452 4.004839 5.902049 C 4.007963 5.869442 4.012854 5.836971 4.01924 5.804908 C 4.025625 5.772844 4.033505 5.741052 4.043016 5.709668 C 4.052526 5.67842 4.063531 5.647579 4.076166 5.617282 C 4.088665 5.587121 4.102659 5.557503 4.118012 5.528564 C 4.1335 5.499761 4.150347 5.471638 4.168552 5.444465 C 4.186758 5.417157 4.206186 5.390936 4.226973 5.365665 C 4.24776 5.340259 4.26977 5.316076 4.292866 5.292843 C 4.316099 5.269747 4.340282 5.247737 4.365553 5.22695 C 4.390959 5.206163 4.41718 5.186735 4.444489 5.168529 C 4.471661 5.150324 4.499784 5.133477 4.528587 5.118124 C 4.557526 5.102636 4.587008 5.088642 4.617305 5.076143 C 4.647602 5.063644 4.678307 5.052503 4.709692 5.042993 C 4.741076 5.033618 4.772732 5.025602 4.804931 5.019217 C 4.836994 5.012831 4.86933 5.008076 4.901936 5.004815 C 4.934543 5.001555 4.967286 5.00006 5.000029 5.00006 C 7.000056 5.00006 9.500056 3.79999 11.240043 2.279963 C 11.266265 2.257546 11.293437 2.236352 11.321425 2.21638 C 11.349548 2.196408 11.378487 2.177659 11.40824 2.160269 C 11.437994 2.142743 11.468427 2.126711 11.499676 2.111902 C 11.530788 2.097229 11.56258 2.083778 11.594915 2.071958 C 11.62725 2.060003 11.660129 2.049405 11.693415 2.040438 C 11.726701 2.031336 11.760259 2.023863 11.794225 2.017749 C 11.828191 2.011771 11.862428 2.007152 11.896801 2.004163 C 11.931038 2.001038 11.965547 1.999544 12.000056 1.999544 C 12.034429 1.999544 12.068938 2.001038 12.103311 2.004163 C 12.137685 2.007152 12.171786 2.011771 12.205752 2.017749 C 12.239717 2.023863 12.273275 2.031336 12.306561 2.040438 C 12.339847 2.049405 12.372726 2.060003 12.405061 2.071958 C 12.437397 2.083778 12.469188 2.097229 12.500301 2.111902 C 12.531549 2.126711 12.561982 2.142743 12.591736 2.160269 C 12.62149 2.177659 12.650428 2.196408 12.678552 2.21638 C 12.706675 2.236352 12.733712 2.257546 12.759933 2.279963 C 14.509974 3.810043 17.000056 5.00006 18.999947 5.00006 C 19.03269 5.00006 19.065433 5.001555 19.09804 5.004815 C 19.130647 5.008076 19.162982 5.012831 19.195046 5.019217 C 19.227245 5.025602 19.258901 5.033618 19.290285 5.042993 C 19.321669 5.052503 19.352374 5.063644 19.382671 5.076143 C 19.412969 5.088642 19.442451 5.102636 19.471389 5.118124 C 19.500328 5.133477 19.528315 5.150324 19.555624 5.168529 C 19.582796 5.186735 19.609018 5.206163 19.634424 5.22695 C 19.659694 5.247737 19.684014 5.269747 19.70711 5.292843 C 19.730207 5.316076 19.752216 5.340259 19.773003 5.365665 C 19.79379 5.390936 19.813218 5.417157 19.831424 5.444465 C 19.84963 5.471638 19.866476 5.499761 19.881965 5.528564 C 19.897317 5.557503 19.911311 5.587121 19.92381 5.617282 C 19.936445 5.647579 19.94745 5.67842 19.956961 5.709668 C 19.966471 5.741052 19.974351 5.772844 19.980737 5.804908 C 19.987122 5.836971 19.992013 5.869442 19.995138 5.902049 C 19.998399 5.93452 20.000029 5.967263 20.000029 6.000006 Z M 20.000029 13.000033 " stroke="#ffffff" stroke-width="2" stroke-opacity="1" stroke-miterlimit="4"/><g fill="#ffffff" fill-opacity="1"><g transform="translate(944.063593, 780.417567)"><g><path d="M 454.78125 0 L 215.90625 0 C 204.269531 0 194.773438 -2.140625 187.421875 -6.421875 C 180.066406 -10.710938 173.941406 -18.675781 169.046875 -30.3125 L 79.015625 -255.40625 C 71.660156 -273.78125 65.835938 -289.09375 61.546875 -301.34375 C 57.265625 -313.59375 54.203125 -325.992188 52.359375 -338.546875 C 50.523438 -351.109375 49.609375 -366.882812 49.609375 -385.875 L 49.609375 -628.421875 C 49.609375 -650.460938 60.632812 -661.484375 82.6875 -661.484375 L 228.765625 -661.484375 C 252.648438 -661.484375 264.59375 -650.460938 264.59375 -628.421875 L 264.59375 -374.84375 C 264.59375 -368.71875 265.203125 -362.59375 266.421875 -356.46875 C 267.648438 -350.34375 269.492188 -343.910156 271.953125 -337.171875 L 315.125 -208.546875 C 318.1875 -198.140625 324.003906 -192.9375 332.578125 -192.9375 L 342.6875 -192.9375 C 351.257812 -192.9375 357.078125 -198.140625 360.140625 -208.546875 L 403.328125 -338.09375 C 405.773438 -344.832031 407.609375 -351.265625 408.828125 -357.390625 C 410.054688 -363.515625 410.671875 -369.640625 410.671875 -375.765625 L 410.671875 -628.421875 C 410.671875 -650.460938 421.695312 -661.484375 443.75 -661.484375 L 587.984375 -661.484375 C 610.035156 -661.484375 621.0625 -650.460938 621.0625 -628.421875 L 621.0625 -385.875 C 621.0625 -366.882812 620.140625 -351.109375 618.296875 -338.546875 C 616.460938 -325.992188 613.398438 -313.59375 609.109375 -301.34375 C 604.828125 -289.09375 599.015625 -273.78125 591.671875 -255.40625 L 501.625 -30.3125 C 497.34375 -18.675781 491.523438 -10.710938 484.171875 -6.421875 C 476.816406 -2.140625 467.019531 0 454.78125 0 Z M 162.609375 -578.796875 L 153.421875 -578.796875 L 153.421875 -380.359375 C 153.421875 -363.203125 154.492188 -347.425781 156.640625 -333.03125 C 158.785156 -318.644531 162.613281 -304.710938 168.125 -291.234375 L 228.765625 -144.234375 C 236.117188 -126.472656 244.390625 -111.773438 253.578125 -100.140625 C 262.765625 -88.503906 276.847656 -82.6875 295.828125 -82.6875 L 376.6875 -82.6875 C 396.28125 -82.6875 410.515625 -88.503906 419.390625 -100.140625 C 428.273438 -111.773438 436.394531 -126.472656 443.75 -144.234375 L 504.390625 -291.234375 C 509.898438 -304.710938 513.722656 -318.644531 515.859375 -333.03125 C 518.003906 -347.425781 519.078125 -363.203125 519.078125 -380.359375 L 519.078125 -578.796875 L 509.890625 -578.796875 L 509.890625 -380.359375 C 509.890625 -347.285156 504.992188 -318.800781 495.203125 -294.90625 L 434.5625 -147.921875 C 428.4375 -131.992188 421.695312 -118.671875 414.34375 -107.953125 C 407 -97.234375 394.445312 -91.875 376.6875 -91.875 L 295.828125 -91.875 C 278.679688 -91.875 266.429688 -97.234375 259.078125 -107.953125 C 251.734375 -118.671875 244.691406 -131.992188 237.953125 -147.921875 L 177.3125 -294.90625 C 167.507812 -318.800781 162.609375 -347.285156 162.609375 -380.359375 Z M 162.609375 -578.796875 "/></g></g></g><g fill="#ffffff" fill-opacity="1"><g transform="translate(1614.735543, 780.417567)"><g><path d="M 623.828125 -173.640625 C 623.828125 -145.460938 619.691406 -119.890625 611.421875 -96.921875 C 603.148438 -73.953125 588.601562 -54.195312 567.78125 -37.65625 C 546.957031 -21.125 518.015625 -8.421875 480.953125 0.453125 C 443.898438 9.335938 396.585938 13.78125 339.015625 13.78125 C 281.441406 13.78125 234.125 9.335938 197.0625 0.453125 C 160.007812 -8.421875 131.070312 -21.125 110.25 -37.65625 C 89.425781 -54.195312 74.722656 -73.953125 66.140625 -96.921875 C 57.566406 -119.890625 53.28125 -145.460938 53.28125 -173.640625 L 53.28125 -486.921875 C 53.28125 -515.097656 57.566406 -540.671875 66.140625 -563.640625 C 74.722656 -586.609375 89.425781 -606.359375 110.25 -622.890625 C 131.070312 -639.429688 160.007812 -652.296875 197.0625 -661.484375 C 234.125 -670.671875 281.441406 -675.265625 339.015625 -675.265625 C 396.585938 -675.265625 443.898438 -670.671875 480.953125 -661.484375 C 518.015625 -652.296875 546.957031 -639.429688 567.78125 -622.890625 C 588.601562 -606.359375 603.148438 -586.609375 611.421875 -563.640625 C 619.691406 -540.671875 623.828125 -515.097656 623.828125 -486.921875 Z M 337.171875 -70.75 C 385.554688 -70.75 423.222656 -75.953125 450.171875 -86.359375 C 477.128906 -96.773438 496.117188 -111.320312 507.140625 -130 C 518.160156 -148.675781 523.671875 -170.265625 523.671875 -194.765625 L 523.671875 -465.796875 C 523.671875 -490.910156 518.160156 -512.65625 507.140625 -531.03125 C 496.117188 -549.40625 477.128906 -563.796875 450.171875 -574.203125 C 423.222656 -584.617188 385.554688 -589.828125 337.171875 -589.828125 C 289.398438 -589.828125 252.039062 -584.617188 225.09375 -574.203125 C 198.144531 -563.796875 179.3125 -549.40625 168.59375 -531.03125 C 157.875 -512.65625 152.515625 -490.910156 152.515625 -465.796875 L 152.515625 -194.765625 C 152.515625 -170.265625 157.875 -148.675781 168.59375 -130 C 179.3125 -111.320312 198.144531 -96.773438 225.09375 -86.359375 C 252.039062 -75.953125 289.398438 -70.75 337.171875 -70.75 Z M 337.171875 -79.9375 C 291.847656 -79.9375 256.320312 -84.679688 230.59375 -94.171875 C 204.875 -103.660156 186.960938 -117.132812 176.859375 -134.59375 C 166.753906 -152.050781 161.703125 -172.109375 161.703125 -194.765625 L 161.703125 -465.796875 C 161.703125 -489.066406 166.753906 -509.273438 176.859375 -526.421875 C 186.960938 -543.578125 204.875 -556.898438 230.59375 -566.390625 C 256.320312 -575.890625 291.847656 -580.640625 337.171875 -580.640625 C 383.109375 -580.640625 418.9375 -575.890625 444.65625 -566.390625 C 470.382812 -556.898438 488.453125 -543.578125 498.859375 -526.421875 C 509.273438 -509.273438 514.484375 -489.066406 514.484375 -465.796875 L 514.484375 -194.765625 C 514.484375 -172.109375 509.273438 -152.050781 498.859375 -134.59375 C 488.453125 -117.132812 470.382812 -103.660156 444.65625 -94.171875 C 418.9375 -84.679688 383.109375 -79.9375 337.171875 -79.9375 Z M 261.84375 -206.71875 C 261.84375 -194.46875 266.4375 -184.207031 275.625 -175.9375 C 284.8125 -167.664062 305.941406 -163.53125 339.015625 -163.53125 C 372.703125 -163.53125 393.984375 -167.664062 402.859375 -175.9375 C 411.742188 -184.207031 416.1875 -194.46875 416.1875 -206.71875 L 416.1875 -453.859375 C 416.1875 -466.109375 411.742188 -476.210938 402.859375 -484.171875 C 393.984375 -492.128906 372.703125 -496.109375 339.015625 -496.109375 C 305.941406 -496.109375 284.8125 -492.128906 275.625 -484.171875 C 266.4375 -476.210938 261.84375 -466.109375 261.84375 -453.859375 Z M 261.84375 -206.71875 "/></g></g></g><g fill="#ffffff" fill-opacity="1"><g transform="translate(2291.838582, 780.417567)"><g><path d="M 626.578125 -173.640625 C 626.578125 -145.460938 622.441406 -119.890625 614.171875 -96.921875 C 605.898438 -73.953125 591.195312 -54.195312 570.0625 -37.65625 C 548.9375 -21.125 520 -8.421875 483.25 0.453125 C 446.5 9.335938 399.644531 13.78125 342.6875 13.78125 C 285.726562 13.78125 238.875 9.335938 202.125 0.453125 C 165.375 -8.421875 136.429688 -21.125 115.296875 -37.65625 C 94.171875 -54.195312 79.472656 -73.953125 71.203125 -96.921875 C 62.929688 -119.890625 58.796875 -145.460938 58.796875 -173.640625 L 58.796875 -628.421875 C 58.796875 -650.460938 69.820312 -661.484375 91.875 -661.484375 L 236.109375 -661.484375 C 258.160156 -661.484375 269.1875 -650.460938 269.1875 -628.421875 L 269.1875 -209.46875 C 269.1875 -197.21875 273.78125 -186.957031 282.96875 -178.6875 C 292.15625 -170.425781 312.675781 -166.296875 344.53125 -166.296875 C 376.988281 -166.296875 397.8125 -170.425781 407 -178.6875 C 416.1875 -186.957031 420.78125 -197.21875 420.78125 -209.46875 L 420.78125 -628.421875 C 420.78125 -650.460938 431.804688 -661.484375 453.859375 -661.484375 L 593.5 -661.484375 C 615.550781 -661.484375 626.578125 -650.460938 626.578125 -628.421875 Z M 159.859375 -578.796875 L 159.859375 -195.6875 C 159.859375 -171.1875 165.21875 -149.59375 175.9375 -130.90625 C 186.65625 -112.226562 205.335938 -97.679688 231.984375 -87.265625 C 258.628906 -76.859375 295.835938 -71.65625 343.609375 -71.65625 C 391.992188 -71.65625 429.503906 -76.859375 456.140625 -87.265625 C 482.785156 -97.679688 501.46875 -112.226562 512.1875 -130.90625 C 522.90625 -149.59375 528.265625 -171.1875 528.265625 -195.6875 L 528.265625 -578.796875 L 519.078125 -578.796875 L 519.078125 -195.6875 C 519.078125 -173.03125 514.023438 -152.972656 503.921875 -135.515625 C 493.816406 -118.054688 476.054688 -104.578125 450.640625 -95.078125 C 425.222656 -85.585938 389.546875 -80.84375 343.609375 -80.84375 C 298.285156 -80.84375 262.910156 -85.585938 237.484375 -95.078125 C 212.066406 -104.578125 194.304688 -118.054688 184.203125 -135.515625 C 174.097656 -152.972656 169.046875 -173.03125 169.046875 -195.6875 L 169.046875 -578.796875 Z M 159.859375 -578.796875 "/></g></g></g><g fill="#ffffff" fill-opacity="1"><g transform="translate(2977.210042, 780.417567)"><g><path d="M 503.46875 0 L 279.296875 0 C 202.117188 0 145.15625 -15.3125 108.40625 -45.9375 C 71.65625 -76.5625 53.28125 -123.722656 53.28125 -187.421875 L 53.28125 -473.140625 C 53.28125 -537.453125 71.65625 -584.921875 108.40625 -615.546875 C 145.15625 -646.171875 202.117188 -661.484375 279.296875 -661.484375 L 503.46875 -661.484375 C 525.519531 -661.484375 536.546875 -650.460938 536.546875 -628.421875 L 536.546875 -517.25 C 536.546875 -495.195312 525.519531 -484.171875 503.46875 -484.171875 L 318.796875 -484.171875 C 281.441406 -484.171875 262.765625 -468.859375 262.765625 -438.234375 L 262.765625 -219.578125 C 262.765625 -190.179688 281.441406 -175.484375 318.796875 -175.484375 L 503.46875 -175.484375 C 525.519531 -175.484375 536.546875 -164.457031 536.546875 -142.40625 L 536.546875 -33.078125 C 536.546875 -11.023438 525.519531 0 503.46875 0 Z M 452.9375 -82.6875 L 452.9375 -91.875 L 299.5 -91.875 C 262.757812 -91.875 234.4375 -95.394531 214.53125 -102.4375 C 194.625 -109.476562 180.84375 -121.113281 173.1875 -137.34375 C 165.53125 -153.582031 161.703125 -174.867188 161.703125 -201.203125 L 161.703125 -458.453125 C 161.703125 -486.015625 165.679688 -507.910156 173.640625 -524.140625 C 181.597656 -540.367188 195.53125 -552.003906 215.4375 -559.046875 C 235.34375 -566.085938 263.363281 -569.609375 299.5 -569.609375 L 452.9375 -569.609375 L 452.9375 -578.796875 L 299.5 -578.796875 C 260.300781 -578.796875 230.132812 -574.816406 209 -566.859375 C 187.875 -558.898438 173.175781 -546.191406 164.90625 -528.734375 C 156.644531 -511.273438 152.515625 -487.847656 152.515625 -458.453125 L 152.515625 -201.203125 C 152.515625 -173.023438 156.492188 -150.207031 164.453125 -132.75 C 172.410156 -115.300781 186.957031 -102.59375 208.09375 -94.625 C 229.226562 -86.664062 259.695312 -82.6875 299.5 -82.6875 Z M 452.9375 -82.6875 "/></g></g></g><g clip-path="url(#a14abf5b12)"><g fill="#ffffff" fill-opacity="1"><g transform="translate(3554.171396, 780.417567)"><g><path d="M 238.875 0 L 96.46875 0 C 74.414062 0 63.390625 -11.023438 63.390625 -33.078125 L 63.390625 -628.421875 C 63.390625 -650.460938 74.414062 -661.484375 96.46875 -661.484375 L 238.875 -661.484375 C 260.925781 -661.484375 271.953125 -650.460938 271.953125 -628.421875 L 271.953125 -429.046875 L 425.375 -429.046875 L 425.375 -628.421875 C 425.375 -650.460938 436.398438 -661.484375 458.453125 -661.484375 L 600.859375 -661.484375 C 622.898438 -661.484375 633.921875 -650.460938 633.921875 -628.421875 L 633.921875 -33.078125 C 633.921875 -11.023438 622.898438 0 600.859375 0 L 458.453125 0 C 436.398438 0 425.375 -11.023438 425.375 -33.078125 L 425.375 -237.03125 L 271.953125 -237.03125 L 271.953125 -33.078125 C 271.953125 -11.023438 260.925781 0 238.875 0 Z M 533.78125 -578.796875 L 524.59375 -578.796875 L 524.59375 -335.34375 L 171.796875 -335.34375 L 171.796875 -578.796875 L 162.609375 -578.796875 L 162.609375 -82.6875 L 171.796875 -82.6875 L 171.796875 -326.15625 L 524.59375 -326.15625 L 524.59375 -82.6875 L 533.78125 -82.6875 Z M 533.78125 -578.796875 "/></g></g></g></g></svg>